<?xml version="1.0" standalone="no"?>
<!DOCTYPE svg PUBLIC "-//W3C//DTD SVG 20010904//EN"
 "http://www.w3.org/TR/2001/REC-SVG-20010904/DTD/svg10.dtd">
<svg version="1.0" xmlns="http://www.w3.org/2000/svg"
 width="371.000000pt" height="371.000000pt" viewBox="0 0 371.000000 371.000000"
 preserveAspectRatio="xMidYMid meet">
<metadata>
Created by potrace 1.11, written by Peter Selinger 2001-2013
</metadata>
<g transform="translate(0.000000,371.000000) scale(0.100000,-0.100000)"
fill="#000000" stroke="none">
<path d="M297 3003 c-4 -3 -7 -30 -7 -60 l0 -53 408 0 409 0 37 -122 c21 -67
40 -127 42 -133 3 -6 -218 -299 -491 -650 l-495 -640 0 -62 0 -62 763 -3 c419
-2 763 -3 764 -3 1 0 127 384 279 852 153 469 280 850 283 848 4 -2 130 -386
281 -854 l275 -851 47 0 47 0 40 123 c21 67 148 464 281 882 133 418 245 765
247 773 4 10 -4 13 -33 10 l-38 -3 -270 -857 c-149 -471 -272 -855 -274 -853
-2 2 -127 388 -277 857 l-273 853 -55 3 -56 3 -19 -63 c-53 -169 -525 -1635
-531 -1645 -4 -7 -92 263 -196 600 -104 336 -190 617 -192 623 -2 6 57 89 132
185 l135 174 0 68 0 67 -628 0 c-346 0 -632 -3 -635 -7z m1093 -118 c0 -12
-149 -195 -153 -188 -6 10 -57 178 -57 187 0 3 47 6 105 6 58 0 105 -2 105 -5z
m26 -993 c92 -298 165 -544 162 -547 -3 -3 -275 -4 -606 -3 l-601 3 432 556
c240 310 435 552 438 545 4 -6 82 -255 175 -554z"/>
</g>
</svg>
